<svg width="25" height="25" viewBox="0 0 25 25" fill="none" xmlns="http://www.w3.org/2000/svg">
<path d="M22.3055 10.061H21.5V10.0195H12.5V14.0195H18.1515C17.327 16.348 15.1115 18.0195 12.5 18.0195C9.1865 18.0195 6.5 15.333 6.5 12.0195C6.5 8.70603 9.1865 6.01953 12.5 6.01953C14.0295 6.01953 15.421 6.59653 16.4805 7.53903L19.309 4.71053C17.523 3.04603 15.134 2.01953 12.5 2.01953C6.9775 2.01953 2.5 6.49703 2.5 12.0195C2.5 17.542 6.9775 22.0195 12.5 22.0195C18.0225 22.0195 22.5 17.542 22.5 12.0195C22.5 11.349 22.431 10.6945 22.3055 10.061Z" fill="#FFC107"/>
<path d="M3.65283 7.36503L6.93833 9.77453C7.82733 7.57353 9.98033 6.01953 12.4998 6.01953C14.0293 6.01953 15.4208 6.59653 16.4803 7.53903L19.3088 4.71053C17.5228 3.04603 15.1338 2.01953 12.4998 2.01953C8.65883 2.01953 5.32783 4.18803 3.65283 7.36503Z" fill="#FF3D00"/>
<path d="M12.5002 22.0199C15.0832 22.0199 17.4302 21.0314 19.2047 19.4239L16.1097 16.8049C15.1057 17.5654 13.8577 18.0199 12.5002 18.0199C9.89916 18.0199 7.69066 16.3614 6.85866 14.0469L3.59766 16.5594C5.25266 19.7979 8.61366 22.0199 12.5002 22.0199Z" fill="#4CAF50"/>
<path d="M22.3055 10.061H21.5V10.0195H12.5V14.0195H18.1515C17.7555 15.138 17.036 16.1025 16.108 16.805L16.1095 16.804L19.2045 19.423C18.9855 19.622 22.5 17.0195 22.5 12.0195C22.5 11.349 22.431 10.6945 22.3055 10.061Z" fill="#6366F1"/>
</svg>
