<svg width="25" height="25" viewBox="0 0 25 25" fill="none" xmlns="http://www.w3.org/2000/svg">
<path d="M21.6665 4.52002H3.6665C3.26868 4.52002 2.88715 4.67805 2.60584 4.95936C2.32454 5.24066 2.1665 5.62219 2.1665 6.02002V8.27002C2.1665 8.66784 2.32454 9.04938 2.60584 9.33068C2.88715 9.61198 3.26868 9.77002 3.6665 9.77002V18.02C3.6665 18.4178 3.82454 18.7994 4.10584 19.0807C4.38715 19.362 4.76868 19.52 5.1665 19.52H20.1665C20.5643 19.52 20.9459 19.362 21.2272 19.0807C21.5085 18.7994 21.6665 18.4178 21.6665 18.02V9.77002C22.0643 9.77002 22.4459 9.61198 22.7272 9.33068C23.0085 9.04938 23.1665 8.66784 23.1665 8.27002V6.02002C23.1665 5.62219 23.0085 5.24066 22.7272 4.95936C22.4459 4.67805 22.0643 4.52002 21.6665 4.52002ZM20.1665 18.02H5.1665V9.77002H20.1665V18.02ZM21.6665 8.27002H3.6665V6.02002H21.6665V8.27002ZM9.6665 12.77C9.6665 12.5711 9.74552 12.3803 9.88617 12.2397C10.0268 12.099 10.2176 12.02 10.4165 12.02H14.9165C15.1154 12.02 15.3062 12.099 15.4468 12.2397C15.5875 12.3803 15.6665 12.5711 15.6665 12.77C15.6665 12.9689 15.5875 13.1597 15.4468 13.3004C15.3062 13.441 15.1154 13.52 14.9165 13.52H10.4165C10.2176 13.52 10.0268 13.441 9.88617 13.3004C9.74552 13.1597 9.6665 12.9689 9.6665 12.77Z" fill="#C2410C"/>
</svg>
