<svg width="25" height="25" viewBox="0 0 25 25" fill="none" xmlns="http://www.w3.org/2000/svg">
<path d="M16.9471 9.23939C17.0169 9.30905 17.0722 9.39177 17.1099 9.48281C17.1477 9.57386 17.1671 9.67146 17.1671 9.77002C17.1671 9.86858 17.1477 9.96618 17.1099 10.0572C17.0722 10.1483 17.0169 10.231 16.9471 10.3006L11.6971 15.5506C11.6275 15.6204 11.5448 15.6757 11.4537 15.7134C11.3627 15.7512 11.2651 15.7706 11.1665 15.7706C11.0679 15.7706 10.9704 15.7512 10.8793 15.7134C10.7883 15.6757 10.7055 15.6204 10.6359 15.5506L8.38588 13.3006C8.24515 13.1599 8.16609 12.969 8.16609 12.77C8.16609 12.571 8.24515 12.3801 8.38588 12.2394C8.52661 12.0987 8.71749 12.0196 8.91651 12.0196C9.11553 12.0196 9.3064 12.0987 9.44713 12.2394L11.1665 13.9597L15.8859 9.23939C15.9555 9.16966 16.0383 9.11434 16.1293 9.0766C16.2204 9.03886 16.3179 9.01943 16.4165 9.01943C16.5151 9.01943 16.6127 9.03886 16.7037 9.0766C16.7948 9.11434 16.8775 9.16966 16.9471 9.23939ZM22.4165 12.02C22.4165 13.9484 21.8447 15.8334 20.7733 17.4368C19.702 19.0402 18.1793 20.2899 16.3977 21.0278C14.6161 21.7658 12.6557 21.9589 10.7644 21.5827C8.87306 21.2065 7.13578 20.2779 5.77222 18.9143C4.40866 17.5507 3.48006 15.8135 3.10385 13.9222C2.72765 12.0308 2.92073 10.0704 3.65868 8.28886C4.39664 6.50728 5.64632 4.98453 7.2497 3.91319C8.85308 2.84185 10.7381 2.27002 12.6665 2.27002C15.2515 2.27275 17.7299 3.30085 19.5578 5.12874C21.3857 6.95663 22.4138 9.435 22.4165 12.02ZM20.9165 12.02C20.9165 10.3883 20.4327 8.79327 19.5261 7.43656C18.6196 6.07986 17.3311 5.02244 15.8236 4.39801C14.3162 3.77359 12.6574 3.61021 11.057 3.92854C9.45667 4.24687 7.98666 5.03261 6.83288 6.18639C5.67909 7.34017 4.89336 8.81018 4.57503 10.4105C4.2567 12.0109 4.42008 13.6697 5.0445 15.1772C5.66892 16.6846 6.72635 17.9731 8.08305 18.8796C9.43976 19.7862 11.0348 20.27 12.6665 20.27C14.8538 20.2675 16.9508 19.3975 18.4974 17.8509C20.044 16.3043 20.914 14.2073 20.9165 12.02Z" fill="#C2410C"/>
</svg>
