<svg width="25" height="25" viewBox="0 0 25 25" fill="none" xmlns="http://www.w3.org/2000/svg">
<path d="M15.2074 18.4364L12.2074 22.9364C12.1527 23.0184 12.0824 23.0888 12.0006 23.1437C11.9187 23.1985 11.8268 23.2367 11.7302 23.256C11.535 23.295 11.3324 23.2549 11.1668 23.1445C11.0012 23.0341 10.8862 22.8625 10.8472 22.6673C10.8081 22.4722 10.8482 22.2695 10.9586 22.1039L13.9586 17.6039C14.069 17.4383 14.2407 17.3234 14.4358 17.2843C14.631 17.2453 14.8337 17.2854 14.9993 17.3958C15.1649 17.5062 15.2798 17.6778 15.3188 17.873C15.3579 18.0682 15.3178 18.2708 15.2074 18.4364ZM22.083 8.64517C22.081 10.5342 21.3297 12.3453 19.9939 13.6811C18.6582 15.0169 16.8471 15.7682 14.958 15.7702H12.7343L9.95738 19.9364C9.90272 20.0184 9.83244 20.0888 9.75056 20.1437C9.66868 20.1985 9.57681 20.2367 9.48017 20.256C9.38354 20.2753 9.28405 20.2754 9.18738 20.2563C9.09071 20.2372 8.99875 20.1992 8.91676 20.1445C8.83476 20.0899 8.76434 20.0196 8.70951 19.9377C8.65467 19.8558 8.6165 19.764 8.59717 19.6673C8.57785 19.5707 8.57774 19.4712 8.59687 19.3745C8.61599 19.2779 8.65397 19.1859 8.70863 19.1039L10.9314 15.7702H7.45801C6.16508 15.7702 4.9251 15.2566 4.01086 14.3423C3.09662 13.4281 2.58301 12.1881 2.58301 10.8952C2.58301 9.60224 3.09662 8.36226 4.01086 7.44802C4.9251 6.53378 6.16508 6.02017 7.45801 6.02017C7.73826 6.02041 8.018 6.04424 8.29426 6.09142C8.8924 4.53776 10.0152 3.24229 11.4681 2.42944C12.921 1.61659 14.6124 1.33759 16.2494 1.64076C17.8864 1.94394 19.3657 2.8102 20.4312 4.08945C21.4966 5.3687 22.0809 6.98035 22.083 8.64517ZM20.583 8.64517C20.577 7.1846 20.0037 5.78351 18.9841 4.73769C17.9645 3.69188 16.5784 3.08319 15.1185 3.04012C13.6585 2.99705 12.239 3.52298 11.1595 4.50687C10.08 5.49076 9.4251 6.85561 9.33301 8.31329C9.32734 8.41178 9.30234 8.50819 9.25941 8.59702C9.21649 8.68585 9.15649 8.76535 9.08284 8.83099C8.9341 8.96355 8.7388 9.0316 8.53988 9.02017C8.34097 9.00873 8.15475 8.91874 8.02218 8.77C7.88962 8.62126 7.82157 8.42595 7.83301 8.22704C7.84613 7.99829 7.8702 7.77235 7.9052 7.54923C7.75689 7.53019 7.60753 7.52049 7.45801 7.52017C6.5629 7.52017 5.70446 7.87575 5.07152 8.50868C4.43859 9.14162 4.08301 10.0001 4.08301 10.8952C4.08301 11.7903 4.43859 12.6487 5.07152 13.2817C5.70446 13.9146 6.5629 14.2702 7.45801 14.2702H14.958C16.4493 14.2684 17.879 13.6752 18.9336 12.6207C19.9881 11.5662 20.5813 10.1365 20.583 8.64517Z" fill="#C2410C"/>
</svg>
