<svg width="24" height="25" viewBox="0 0 24 25" fill="none" xmlns="http://www.w3.org/2000/svg">
<path d="M12 2.77002C10.0716 2.77002 8.18657 3.34185 6.58319 4.41319C4.97982 5.48453 3.73013 7.00728 2.99218 8.78886C2.25422 10.5704 2.06114 12.5308 2.43735 14.4222C2.81355 16.3135 3.74215 18.0507 5.10571 19.4143C6.46927 20.7779 8.20656 21.7065 10.0979 22.0827C11.9892 22.4589 13.9496 22.2658 15.7312 21.5278C17.5127 20.7899 19.0355 19.5402 20.1068 17.9368C21.1782 16.3334 21.75 14.4484 21.75 12.52C21.7473 9.935 20.7192 7.45663 18.8913 5.62874C17.0634 3.80085 14.585 2.77275 12 2.77002ZM12 20.77C10.3683 20.77 8.77326 20.2862 7.41655 19.3796C6.05984 18.4731 5.00242 17.1846 4.378 15.6772C3.75358 14.1697 3.5902 12.5109 3.90853 10.9105C4.22685 9.31018 5.01259 7.84017 6.16637 6.68639C7.32016 5.53261 8.79017 4.74687 10.3905 4.42854C11.9909 4.11021 13.6497 4.27359 15.1571 4.89801C16.6646 5.52244 17.9531 6.57986 18.8596 7.93656C19.7661 9.29327 20.25 10.8883 20.25 12.52C20.2475 14.7073 19.3775 16.8043 17.8309 18.3509C16.2843 19.8975 14.1873 20.7675 12 20.77ZM7.5 10.645C7.5 10.4225 7.56598 10.205 7.6896 10.02C7.81322 9.835 7.98892 9.6908 8.19449 9.60565C8.40005 9.52051 8.62625 9.49823 8.84448 9.54164C9.06271 9.58504 9.26317 9.69219 9.4205 9.84952C9.57783 10.0069 9.68498 10.2073 9.72839 10.4255C9.7718 10.6438 9.74952 10.87 9.66437 11.0755C9.57922 11.2811 9.43503 11.4568 9.25002 11.5804C9.06502 11.704 8.84751 11.77 8.625 11.77C8.32664 11.77 8.04049 11.6515 7.82951 11.4405C7.61853 11.2295 7.5 10.9434 7.5 10.645ZM17.25 10.645C17.25 10.8439 17.171 11.0347 17.0303 11.1753C16.8897 11.316 16.6989 11.395 16.5 11.395H14.25C14.0511 11.395 13.8603 11.316 13.7197 11.1753C13.579 11.0347 13.5 10.8439 13.5 10.645C13.5 10.4461 13.579 10.2553 13.7197 10.1147C13.8603 9.97404 14.0511 9.89502 14.25 9.89502H16.5C16.6989 9.89502 16.8897 9.97404 17.0303 10.1147C17.171 10.2553 17.25 10.4461 17.25 10.645ZM16.3988 15.145C15.4341 16.8128 13.8309 17.77 12 17.77C10.1691 17.77 8.56594 16.8138 7.60032 15.145C7.55107 15.0597 7.51911 14.9655 7.50626 14.8678C7.49342 14.7702 7.49993 14.6709 7.52544 14.5758C7.55095 14.4806 7.59495 14.3914 7.65492 14.3133C7.7149 14.2351 7.78969 14.1696 7.875 14.1203C7.96032 14.0711 8.0545 14.0391 8.15217 14.0263C8.24984 14.0134 8.34909 14.0199 8.44424 14.0455C8.53939 14.071 8.62858 14.115 8.70673 14.1749C8.78488 14.2349 8.85045 14.3097 8.89969 14.395C9.59907 15.6053 10.6997 16.27 12 16.27C13.3003 16.27 14.4009 15.6044 15.1013 14.395C15.1481 14.3054 15.2127 14.2262 15.291 14.1621C15.3693 14.0981 15.4597 14.0505 15.5569 14.0224C15.654 13.9942 15.7558 13.9859 15.8563 13.9981C15.9567 14.0103 16.0536 14.0427 16.1412 14.0933C16.2287 14.144 16.3052 14.2118 16.3658 14.2927C16.4265 14.3736 16.4702 14.466 16.4943 14.5642C16.5183 14.6625 16.5223 14.7646 16.5059 14.8644C16.4895 14.9642 16.453 15.0597 16.3988 15.145Z" fill="#1C1917"/>
</svg>
