<svg width="24" height="25" viewBox="0 0 24 25" fill="none" xmlns="http://www.w3.org/2000/svg">
<path d="M21.5931 7.22254C21.4792 6.79994 21.2566 6.41454 20.9475 6.10471C20.6383 5.79487 20.2534 5.5714 19.8311 5.45654C18.2651 5.02654 12.0001 5.01954 12.0001 5.01954C12.0001 5.01954 5.73609 5.01254 4.16909 5.42354C3.74701 5.54369 3.36291 5.77032 3.05365 6.08167C2.7444 6.39303 2.52037 6.77866 2.40309 7.20154C1.99009 8.76754 1.98609 12.0155 1.98609 12.0155C1.98609 12.0155 1.98209 15.2795 2.39209 16.8295C2.62209 17.6865 3.29709 18.3635 4.15509 18.5945C5.73709 19.0245 11.9851 19.0315 11.9851 19.0315C11.9851 19.0315 18.2501 19.0385 19.8161 18.6285C20.2386 18.5139 20.6238 18.2909 20.9337 17.9817C21.2436 17.6725 21.4675 17.2878 21.5831 16.8655C21.9971 15.3005 22.0001 12.0535 22.0001 12.0535C22.0001 12.0535 22.0201 8.78854 21.5931 7.22254ZM9.99609 15.0245L10.0011 9.02454L15.2081 12.0295L9.99609 15.0245Z" fill="#1C1917"/>
</svg>
