<svg width="24" height="25" viewBox="0 0 24 25" fill="none" xmlns="http://www.w3.org/2000/svg">
<path fill-rule="evenodd" clip-rule="evenodd" d="M16 3.26172H8C5.23858 3.26172 3 5.5003 3 8.26172V16.2617C3 19.0231 5.23858 21.2617 8 21.2617H16C18.7614 21.2617 21 19.0231 21 16.2617V8.26172C21 5.5003 18.7614 3.26172 16 3.26172ZM19.25 16.2617C19.2445 18.0543 17.7926 19.5062 16 19.5117H8C6.20735 19.5062 4.75549 18.0543 4.75 16.2617V8.26172C4.75549 6.46907 6.20735 5.01721 8 5.01172H16C17.7926 5.01721 19.2445 6.46907 19.25 8.26172V16.2617ZM16.75 8.51172C17.3023 8.51172 17.75 8.064 17.75 7.51172C17.75 6.95944 17.3023 6.51172 16.75 6.51172C16.1977 6.51172 15.75 6.95944 15.75 7.51172C15.75 8.064 16.1977 8.51172 16.75 8.51172ZM12 7.76172C9.51472 7.76172 7.5 9.77644 7.5 12.2617C7.5 14.747 9.51472 16.7617 12 16.7617C14.4853 16.7617 16.5 14.747 16.5 12.2617C16.5027 11.0674 16.0294 9.92129 15.1849 9.0768C14.3404 8.23231 13.1943 7.75906 12 7.76172ZM9.25 12.2617C9.25 13.7805 10.4812 15.0117 12 15.0117C13.5188 15.0117 14.75 13.7805 14.75 12.2617C14.75 10.7429 13.5188 9.51172 12 9.51172C10.4812 9.51172 9.25 10.7429 9.25 12.2617Z" fill="#1C1917"/>
</svg>
