<svg width="24" height="25" viewBox="0 0 24 25" fill="none" xmlns="http://www.w3.org/2000/svg">
<path d="M11.9999 2.27002C10.3166 2.26965 8.66188 2.7051 7.19679 3.53398C5.7317 4.36287 4.50616 5.55694 3.63947 6.99999C2.77277 8.44303 2.29444 10.0859 2.25104 11.7686C2.20764 13.4514 2.60065 15.1167 3.39181 16.6025L2.32774 19.7947C2.2396 20.059 2.22681 20.3426 2.2908 20.6138C2.35479 20.8849 2.49304 21.1329 2.69004 21.3299C2.88704 21.5269 3.13502 21.6652 3.40618 21.7291C3.67733 21.7931 3.96095 21.7803 4.22524 21.6922L7.41743 20.6281C8.72503 21.3236 10.1739 21.7121 11.654 21.764C13.1342 21.816 14.6067 21.53 15.9598 20.9279C17.3129 20.3258 18.5111 19.4233 19.4634 18.289C20.4156 17.1546 21.097 15.8183 21.4557 14.3813C21.8144 12.9444 21.841 11.4446 21.5335 9.9958C21.226 8.54702 20.5925 7.18733 19.6811 6.01994C18.7697 4.85255 17.6043 3.90813 16.2733 3.25838C14.9424 2.60863 13.481 2.27063 11.9999 2.27002ZM11.9999 20.27C10.5496 20.271 9.12471 19.8891 7.86931 19.1628C7.77739 19.1095 7.6752 19.0764 7.56949 19.0655C7.46379 19.0547 7.357 19.0665 7.25618 19.1L3.74993 20.27L4.91899 16.7638C4.95269 16.663 4.9646 16.5563 4.95394 16.4506C4.94327 16.3449 4.91027 16.2426 4.85712 16.1506C3.94772 14.5784 3.5826 12.7499 3.8184 10.949C4.0542 9.14803 4.87774 7.47522 6.16126 6.19007C7.44479 4.90493 9.11655 4.07927 10.9172 3.8412C12.7179 3.60312 14.5468 3.96593 16.1202 4.87335C17.6936 5.78076 18.9236 7.18206 19.6193 8.85985C20.3151 10.5376 20.4377 12.3981 19.9681 14.1527C19.4986 15.9073 18.4632 17.4579 17.0224 18.564C15.5817 19.67 13.8163 20.2697 11.9999 20.27Z" fill="#C2410C"/>
</svg>
