<svg width="24" height="25" viewBox="0 0 24 25" fill="none" xmlns="http://www.w3.org/2000/svg">
<path d="M19.5 5.27002H16.9012L15.6234 3.35377C15.555 3.25116 15.4623 3.16702 15.3535 3.10881C15.2448 3.05059 15.1233 3.02009 15 3.02002H9C8.87665 3.02009 8.75522 3.05059 8.64648 3.10881C8.53773 3.16702 8.44502 3.25116 8.37656 3.35377L7.09781 5.27002H4.5C3.90326 5.27002 3.33097 5.50707 2.90901 5.92903C2.48705 6.35099 2.25 6.92328 2.25 7.52002V18.02C2.25 18.6168 2.48705 19.1891 2.90901 19.611C3.33097 20.033 3.90326 20.27 4.5 20.27H19.5C20.0967 20.27 20.669 20.033 21.091 19.611C21.5129 19.1891 21.75 18.6168 21.75 18.02V7.52002C21.75 6.92328 21.5129 6.35099 21.091 5.92903C20.669 5.50707 20.0967 5.27002 19.5 5.27002ZM20.25 18.02C20.25 18.2189 20.171 18.4097 20.0303 18.5504C19.8897 18.691 19.6989 18.77 19.5 18.77H4.5C4.30109 18.77 4.11032 18.691 3.96967 18.5504C3.82902 18.4097 3.75 18.2189 3.75 18.02V7.52002C3.75 7.32111 3.82902 7.13034 3.96967 6.98969C4.11032 6.84904 4.30109 6.77002 4.5 6.77002H7.5C7.62351 6.7701 7.74512 6.73968 7.85405 6.68145C7.96297 6.62323 8.05583 6.53901 8.12438 6.43627L9.40125 4.52002H14.5978L15.8756 6.43627C15.9442 6.53901 16.037 6.62323 16.146 6.68145C16.2549 6.73968 16.3765 6.7701 16.5 6.77002H19.5C19.6989 6.77002 19.8897 6.84904 20.0303 6.98969C20.171 7.13034 20.25 7.32111 20.25 7.52002V18.02ZM12 8.27002C11.1842 8.27002 10.3866 8.51195 9.70827 8.96521C9.02992 9.41847 8.50121 10.0627 8.189 10.8165C7.87679 11.5702 7.7951 12.3996 7.95426 13.1998C8.11342 13.9999 8.50629 14.7349 9.08318 15.3118C9.66008 15.8887 10.3951 16.2816 11.1953 16.4408C11.9954 16.5999 12.8248 16.5182 13.5786 16.206C14.3323 15.8938 14.9766 15.3651 15.4298 14.6867C15.8831 14.0084 16.125 13.2109 16.125 12.395C16.1238 11.3014 15.6888 10.2529 14.9154 9.47957C14.1421 8.70626 13.0936 8.27126 12 8.27002ZM12 15.02C11.4808 15.02 10.9733 14.8661 10.5416 14.5776C10.1099 14.2892 9.7735 13.8792 9.57482 13.3996C9.37614 12.9199 9.32415 12.3921 9.42544 11.8829C9.52672 11.3737 9.77673 10.906 10.1438 10.5389C10.511 10.1718 10.9787 9.92174 11.4879 9.82046C11.9971 9.71917 12.5249 9.77116 13.0045 9.96984C13.4842 10.1685 13.8942 10.505 14.1826 10.9366C14.471 11.3683 14.625 11.8758 14.625 12.395C14.625 13.0912 14.3484 13.7589 13.8562 14.2512C13.3639 14.7435 12.6962 15.02 12 15.02Z" fill="#C2410C"/>
</svg>
