<svg width="24" height="25" viewBox="0 0 24 25" fill="none" xmlns="http://www.w3.org/2000/svg">
<path fill-rule="evenodd" clip-rule="evenodd" d="M4.5 3.26172C3.67157 3.26172 3 3.93329 3 4.76172V19.7617C3 20.5901 3.67157 21.2617 4.5 21.2617H19.5C20.3284 21.2617 21 20.5901 21 19.7617V4.76172C21 3.93329 20.3284 3.26172 19.5 3.26172H4.5ZM8.52076 7.26444C8.52639 8.22069 7.81061 8.80991 6.96123 8.80569C6.16107 8.80147 5.46357 8.16444 5.46779 7.26585C5.47201 6.42069 6.13998 5.74147 7.00764 5.76116C7.88795 5.78085 8.52639 6.42632 8.52076 7.26444ZM12.2797 10.0235H9.75971H9.7583V18.5833H12.4217V18.3836C12.4217 18.0037 12.4214 17.6237 12.4211 17.2436C12.4203 16.2298 12.4194 15.2149 12.4246 14.2014C12.426 13.9553 12.4372 13.6994 12.5005 13.4645C12.7381 12.587 13.5271 12.0203 14.4074 12.1596C14.9727 12.2481 15.3467 12.5758 15.5042 13.1088C15.6013 13.442 15.6449 13.8006 15.6491 14.148C15.6605 15.1956 15.6589 16.2432 15.6573 17.2909C15.6567 17.6607 15.6561 18.0307 15.6561 18.4005V18.5819H18.328V18.3766C18.328 17.9246 18.3278 17.4727 18.3275 17.0208C18.327 15.8913 18.3264 14.7618 18.3294 13.6319C18.3308 13.1214 18.276 12.618 18.1508 12.1244C17.9638 11.3903 17.5771 10.7828 16.9485 10.3441C16.5027 10.0319 16.0133 9.83082 15.4663 9.80832C15.404 9.80573 15.3412 9.80234 15.2781 9.79893C14.9984 9.78381 14.7141 9.76845 14.4467 9.82238C13.6817 9.97566 13.0096 10.3258 12.5019 10.9431C12.4429 11.0139 12.3852 11.0858 12.2991 11.1931L12.2797 11.2174V10.0235ZM5.68164 18.5861H8.33242V10.029H5.68164V18.5861Z" fill="#1C1917"/>
</svg>
