<svg width="25" height="25" viewBox="0 0 25 25" fill="none" xmlns="http://www.w3.org/2000/svg">
<path d="M14.583 12.02C14.583 12.2189 14.504 12.4097 14.3633 12.5504C14.2227 12.691 14.0319 12.77 13.833 12.77H11.958V14.645C11.958 14.8439 11.879 15.0347 11.7383 15.1754C11.5977 15.316 11.4069 15.395 11.208 15.395C11.0091 15.395 10.8183 15.316 10.6777 15.1754C10.537 15.0347 10.458 14.8439 10.458 14.645V12.77H8.58301C8.3841 12.77 8.19333 12.691 8.05268 12.5504C7.91203 12.4097 7.83301 12.2189 7.83301 12.02C7.83301 11.8211 7.91203 11.6303 8.05268 11.4897C8.19333 11.349 8.3841 11.27 8.58301 11.27H10.458V9.39502C10.458 9.19611 10.537 9.00534 10.6777 8.86469C10.8183 8.72404 11.0091 8.64502 11.208 8.64502C11.4069 8.64502 11.5977 8.72404 11.7383 8.86469C11.879 9.00534 11.958 9.19611 11.958 9.39502V11.27H13.833C14.0319 11.27 14.2227 11.349 14.3633 11.4897C14.504 11.6303 14.583 11.8211 14.583 12.02ZM21.333 7.52002V16.52C21.333 17.1168 21.096 17.6891 20.674 18.111C20.252 18.533 19.6797 18.77 19.083 18.77H3.33301C2.73627 18.77 2.16397 18.533 1.74202 18.111C1.32006 17.6891 1.08301 17.1168 1.08301 16.52V7.52002C1.08301 6.92328 1.32006 6.35099 1.74202 5.92903C2.16397 5.50707 2.73627 5.27002 3.33301 5.27002H19.083C19.6797 5.27002 20.252 5.50707 20.674 5.92903C21.096 6.35099 21.333 6.92328 21.333 7.52002ZM19.833 7.52002C19.833 7.32111 19.754 7.13034 19.6133 6.98969C19.4727 6.84904 19.2819 6.77002 19.083 6.77002H3.33301C3.1341 6.77002 2.94333 6.84904 2.80268 6.98969C2.66203 7.13034 2.58301 7.32111 2.58301 7.52002V16.52C2.58301 16.7189 2.66203 16.9097 2.80268 17.0504C2.94333 17.191 3.1341 17.27 3.33301 17.27H19.083C19.2819 17.27 19.4727 17.191 19.6133 17.0504C19.754 16.9097 19.833 16.7189 19.833 16.52V7.52002ZM23.583 8.27002C23.3841 8.27002 23.1933 8.34904 23.0527 8.48969C22.912 8.63034 22.833 8.82111 22.833 9.02002V15.02C22.833 15.2189 22.912 15.4097 23.0527 15.5504C23.1933 15.691 23.3841 15.77 23.583 15.77C23.7819 15.77 23.9727 15.691 24.1133 15.5504C24.254 15.4097 24.333 15.2189 24.333 15.02V9.02002C24.333 8.82111 24.254 8.63034 24.1133 8.48969C23.9727 8.34904 23.7819 8.27002 23.583 8.27002Z" fill="#C2410C"/>
</svg>
