<svg width="12" height="13" viewBox="0 0 12 13" fill="none" xmlns="http://www.w3.org/2000/svg">
<path d="M10.1479 5.41795L6.39795 9.16795C6.34569 9.22039 6.28359 9.262 6.21522 9.29039C6.14685 9.31878 6.07354 9.33339 5.99951 9.33339C5.92548 9.33339 5.85217 9.31878 5.7838 9.29039C5.71543 9.262 5.65333 9.22039 5.60107 9.16795L1.85107 5.41795C1.7454 5.31228 1.68604 5.16895 1.68604 5.01951C1.68604 4.87007 1.7454 4.72675 1.85107 4.62107C1.95675 4.5154 2.10007 4.45604 2.24951 4.45604C2.39895 4.45604 2.54228 4.5154 2.64795 4.62107L5.99998 7.9731L9.35201 4.6206C9.45768 4.51493 9.60101 4.45557 9.75045 4.45557C9.89989 4.45557 10.0432 4.51493 10.1489 4.6206C10.2546 4.72628 10.3139 4.8696 10.3139 5.01904C10.3139 5.16849 10.2546 5.31181 10.1489 5.41748L10.1479 5.41795Z" fill="#78716C"/>
</svg>
